<svg xmlns="http://www.w3.org/2000/svg" viewBox="0 0 128 128"><path fill="#000" d="M64 0 L20 48 H44 L64 24 L84 48 H108 L64 0"/><path fill="#000" d="M64 128 L108 80 H84 L64 104 L44 80 H20 L64 128"/><path fill="#000" d="M20 48 Q0 58 20 68 L44 80 L44 48 Z"/><path fill="#000" d="M108 48 Q128 58 108 68 L84 80 L84 48 Z"/><circle cx="64" cy="64" r="36" fill="#fff"/><circle cx="52" cy="58" r="5" fill="#000"/><circle cx="76" cy="58" r="5" fill="#000"/><path fill="#000" d="M64 72 Q58 78 64 84 Q70 78 64 72"/><style>circle,path{transition:fill .3s}@media (prefers-color-scheme:dark){circle,path{fill:#fff}circle[fill=&quot;#fff&quot;],path[fill=&quot;#fff&quot;]{fill:#000}}</style></svg>